<?xml version="1.0" encoding="utf-8"?>
<!-- Generator: Adobe Illustrator 27.2.0, SVG Export Plug-In . SVG Version: 6.00 Build 0)  -->
<svg version="1.1" xmlns="http://www.w3.org/2000/svg" xmlns:xlink="http://www.w3.org/1999/xlink" x="0px" y="0px"
	 viewBox="0 0 360 360" style="enable-background:new 0 0 360 360;" xml:space="preserve">
<style type="text/css">
	.st0{fill:none;stroke:#FFFFFF;stroke-width:3;stroke-miterlimit:10;}
	.st1{fill:#FFFFFF;}
</style>
<g id="Layer_2">
	<rect x="-2.87" y="-1.83" width="363.46" height="362.5"/>
</g>
<g id="Layer_1">
	<line class="st0" x1="27.9" y1="321.73" x2="327.9" y2="322.21"/>
	<g>
		<path class="st1" d="M276.01,323.4c-7.93-66.3-28.84-187.92-70.36-239.29c-37.47-47.65-84.09,11.4-105.93,44.46
			c-10.32,15.7-19.59,32.16-27.62,49.14c0,0-0.91-0.42-0.91-0.42c8.14-17.02,17.29-33.52,27.42-49.44
			c23.3-36.26,68.82-95.63,110.84-47.04c37.13,42.34,59.22,129.24,72.34,184.38c4.26,18.57,8.1,37,11.46,55.83
			C293.26,321.02,276.01,323.4,276.01,323.4L276.01,323.4z"/>
	</g>
</g>
</svg>
